<?xml version="1.0" encoding="utf-8" ?><svg xmlns="http://www.w3.org/2000/svg" xmlns:xlink="http://www.w3.org/1999/xlink" width="583" height="584" viewBox="0 0 583 584"><clipPath id="cl_3"><rect width="583" height="584"/></clipPath><g clip-path="url(#cl_3)"><path fill="#529850" transform="translate(-222 -219)" d="M507.269 220.741C668 217.535 800.925 345.18 804.233 505.909C807.541 666.638 679.979 799.644 519.252 803.053C358.381 806.465 225.231 678.765 221.921 517.892C218.61 357.02 346.394 223.95 507.269 220.741Z"/><path fill="#FEFEFE" transform="translate(-222 -219)" d="M509.681 492.713C537.118 490.708 574.734 500 598.731 512.939C603.45 515.483 612.021 519.864 615.709 523.376C631.788 538.692 639.714 568.356 640.848 589.47C642.515 622.518 630.969 654.873 608.757 679.401C586.125 704.242 554.537 719.055 520.966 720.568C489.833 723.664 455.73 710.68 432.264 690.512C406.252 668.156 391.406 637.108 389.004 603.027C387.613 581.669 391.91 560.325 401.458 541.169C409.231 525.243 413.563 521.757 429.013 513.405C454.947 499.386 480.589 494.51 509.681 492.713Z"/><path fill="#529850" transform="translate(-222 -219)" d="M552.327 629.231C555.609 631.434 559.046 633.964 562.296 636.261C560.365 639.052 558.153 641.582 555.97 644.182C554.209 645.953 552.359 647.634 550.426 649.216C528.21 667.25 493.189 665.907 473.699 644.478C471.258 641.794 469.05 639.097 466.776 636.273C470.419 633.995 472.918 632.033 476.321 629.364C480.177 631.965 482.661 636.491 486.036 638.969C509.66 656.316 534.448 649.927 552.327 629.231Z"/><path fill="#529850" transform="translate(-222 -219)" d="M559.612 548.729C568.574 546.866 577.345 552.636 579.183 561.603C581.021 570.57 575.228 579.325 566.256 581.14C557.318 582.947 548.603 577.181 546.772 568.248C544.94 559.314 550.683 550.584 559.612 548.729Z"/><path fill="#529850" transform="translate(-222 -219)" d="M463.866 548.753C472.84 547.175 481.394 553.169 482.976 562.142C484.557 571.115 478.567 579.672 469.595 581.257C460.617 582.843 452.054 576.849 450.472 567.871C448.889 558.892 454.887 550.332 463.866 548.753Z"/><path fill="#FEFEFE" transform="translate(-222 -219)" d="M513.117 300.697C520.485 299.57 531.835 301.936 538.576 304.998C557.256 313.486 567.753 326.292 575.087 344.835C597.298 329.423 624.973 327.133 647.124 344.138C659.284 353.567 667.196 367.445 669.116 382.712C673.471 416.471 652.389 444.72 618.304 448.664C619.153 467.941 618.62 489.6 618.506 508.981C581.206 490.316 558.638 479.866 515.797 479.595C472.256 481.569 449.263 487.196 411.009 509.305L410.98 448.658C386.219 445.327 367.925 430.827 361.67 406.196C357.509 390.288 360.028 373.37 368.645 359.365C376.343 346.61 388.836 337.478 403.326 334.014C422.971 329.242 437.821 334.92 454.294 344.963C466.35 315.559 481.466 304.512 513.117 300.697Z"/></g></svg>