<?xml version="1.0" encoding="utf-8" ?><svg xmlns="http://www.w3.org/2000/svg" xmlns:xlink="http://www.w3.org/1999/xlink" width="1024" height="1024" viewBox="0 0 1024 1024"><path fill="#529750" d="M509.649 220.807C670.363 218.927 802.192 347.644 804.152 508.357C806.113 669.069 677.462 800.963 516.751 803.005C355.925 805.047 223.916 676.285 221.954 515.458C219.993 354.631 348.821 222.687 509.649 220.807Z"/><path fill="#FDFDFC" d="M509.757 492.718C541.152 491.71 572.266 498.923 600.015 513.644C603.725 515.605 613.667 521.034 616.254 523.676C631.632 539.385 639.795 568.015 640.864 589.047C642.67 621.994 631.309 654.31 609.284 678.88C586.592 704.055 554.758 719.087 520.9 720.615C489.266 723.471 455 710.565 431.397 689.759C406.102 667.497 390.815 636.003 388.973 602.357C387.655 580.336 392.399 558.374 402.69 538.86C410.361 524.114 413.884 521.756 428.475 513.798C454.469 499.62 480.444 494.118 509.757 492.718Z"/><path fill="#529750" d="M476.31 629.393C478.414 630.059 483.915 637.651 486.495 639.449C509.967 655.805 534.881 650.295 552.345 629.23C555.618 631.415 559.078 633.954 562.322 636.234C559.908 639.673 558.369 641.54 555.56 644.689C553.514 646.765 551.309 648.679 548.965 650.412C536.355 659.684 520.562 663.53 505.101 661.093C488.065 658.428 476.73 649.808 466.833 636.249C470.654 633.902 472.781 632.224 476.31 629.393Z"/><path fill="#529750" d="M559.222 548.752C568.152 546.681 577.071 552.237 579.151 561.165C581.23 570.093 575.684 579.017 566.758 581.105C557.82 583.197 548.88 577.641 546.797 568.7C544.715 559.76 550.28 550.825 559.222 548.752Z"/><path fill="#529750" d="M463.465 548.75C472.423 546.957 481.144 552.751 482.962 561.704C484.781 570.658 479.012 579.395 470.063 581.238C461.079 583.09 452.3 577.293 450.474 568.303C448.648 559.314 454.47 550.55 463.465 548.75Z"/><path fill="#FDFDFC" d="M512.774 300.704C540.649 298.422 566.508 318.934 575.056 344.829C584.243 338.915 591.134 334.906 602.125 333.164C617.6 330.712 633.203 333.96 645.934 343.235C658.398 352.335 666.69 366.054 668.953 381.319C672.969 408.508 659.395 436.458 632.549 445.564C627.557 447.257 623.462 447.961 618.242 448.685C619.058 467.694 618.542 489.78 618.496 509.003C585.025 491.168 554.714 478.97 515.875 479.643C471.335 481.198 449.62 487.651 411.056 509.296L410.985 448.657C401.703 447.739 392.776 444.606 384.954 439.524C372.321 431.243 364.15 418.284 361.097 403.579C357.66 387.806 360.73 371.313 369.612 357.833C377.85 345.18 390.855 336.395 405.669 333.476C423.943 329.906 439.225 334.926 454.296 345.026C457.32 337.644 460.357 330.054 465.522 323.88C478.703 308.125 493.097 302.764 512.774 300.704Z"/></svg>